<?xml version="1.0" encoding="utf-8"?>
<!-- Generator: Adobe Illustrator 25.2.3, SVG Export Plug-In . SVG Version: 6.00 Build 0)  -->
<svg version="1.1" id="レイヤー_1" xmlns="http://www.w3.org/2000/svg" xmlns:xlink="http://www.w3.org/1999/xlink" x="0px"
	 y="0px" viewBox="0 0 800 500" style="enable-background:new 0 0 800 500;" xml:space="preserve">
<style type="text/css">
	.st0{fill:#FFFFFF;}
</style>
<g>
	<path class="st0" d="M341.27,255.7c-6,10.8-26.4,44.6-40,44.2c-6.6,0-8.4-6.6-8.6-15.4c-0.2-19.2,6.6-49.6-13.6-52.6
		c-2.4,19.6-9.4,91.6-38,91.4c-11.6-0.2-14.6-13.6-14.6-23c0.2-31.6,23.8-50.4,48.8-70.4c3.8-31.4,6-62,10-75c0.6-1,2.4-0.6,2.2,0.6
		c-3,12.8-4.6,41.2-7.8,70.8c24.6-19,42-35,50.8-62.4c0.6-1,2.6-0.6,2.2,0.6c-7.8,30.4-30.4,48.6-52.4,65.4
		c24.2,3.8,15.8,39.2,16,57.2c0.2,6.4,1.2,10.6,5,10.6c12.2,0.2,32.6-33.2,38-43C339.87,253.7,341.67,254.3,341.27,255.7z
		 M274.87,233.9c-24,18-46,35.4-46.2,66.4c0,7.8,2.2,20.6,12.2,20.6C265.87,321.3,272.87,250.7,274.87,233.9z"/>
	<path class="st0" d="M393.07,254.7c-5.4,10.2-17.2,31.6-28.2,31.6c-10.8,0-11.2-14-9.6-26.6c-3.2,8.4-7.2,16.2-12,16.2
		c-11.8-0.4-4.6-37.4,7.8-37c2.2,0,4.4,1.6,6.4,5.2l0.6-1.6c0.2-2,4-1.2,3.8,0.8c-2,10-8.8,40.8,3,40.8c9.6,0,21.2-21.2,26.2-30.6
		C392.07,252.7,393.47,253.5,393.07,254.7z M356.67,247.3c-2-4.4-4-6.2-5.6-6.2c-8,0-13.6,32.6-7.8,32.4
		C348.67,273.5,353.87,257.5,356.67,247.3z"/>
	<path class="st0" d="M438.07,255.7c-4.2,7.6-16.2,31-25,30.8c-12.6,0,4-41.6-3-41.6c-6.4-0.2-16.8,24-18.6,29.4
		c-0.6,1.2-2.4,0.8-2.2-0.4c0.8-7,1.4-14.2,1.6-20.8c0.2-1.8,4-1.8,3.8,0.6c-0.4,3.8-0.8,5.8-1.4,10.4c4.2-9.4,11.2-21.6,16.8-21.6
		c12.6,0.2-3.8,41.8,3.2,41.8s19.2-23.2,22.8-29.8C436.87,253.7,438.47,254.5,438.07,255.7z"/>
	<path class="st0" d="M481.47,255.9c-4.2,8.2-11.6,15.4-21.4,15.6c-1,0-2-0.2-3-0.4c-2.6,4.8-6.6,8.4-12.2,8.4
		c-13.8,0-16.2-21-5.6-28.2c1-0.6,2,0.6,1.6,1.6c-6.4,5.8-6,24.2,4.2,24.4c4.4,0,7.2-3.4,8.8-7c-13.4-5.4-17.2-30.8-4.4-30.8
		c8.2,0,11,9.4,11,16.2c0.2,4.6-0.6,9.2-2.4,13.4h2c8.8,0,15.6-6.8,19.4-14.2C480.27,253.9,481.87,254.5,481.47,255.9z
		 M456.67,256.5c0-4.6-1.4-14.6-7.6-14.6c-8.8-0.2-6,21.6,5.6,26.2C456.07,264.5,456.67,260.3,456.67,256.5z"/>
	<path class="st0" d="M530.07,255.5c-6.4,11.6-28.6,53.8-41.6,53.6c-19-0.4-7-71,0.8-110l-32.2,2.4c-1.2,0.2-1.4-2-0.2-2.2l32.8-2.6
		l4.4-21.2c0.2-1,2.2-0.8,2.2,0.2c-0.2,3.2-1.4,10.8-3.2,20.8l21-1.8c1.4,0,1.4,2.2,0,2.4l-21.4,1.6c-6.6,38.4-18.6,107.8-4,108
		c11.4,0.4,33.6-41.8,39.4-52.2C528.87,253.7,530.47,254.3,530.07,255.5z"/>
	<path class="st0" d="M573.47,255.9c-4.2,8.2-11.6,15.4-21.4,15.6c-1,0-2-0.2-3-0.4c-2.6,4.8-6.6,8.4-12.2,8.4
		c-13.8,0-16.2-21-5.6-28.2c1-0.6,2,0.6,1.6,1.6c-6.4,5.8-6,24.2,4.2,24.4c4.4,0,7.2-3.4,8.8-7c-13.4-5.4-17.2-30.8-4.4-30.8
		c8.2,0,11,9.4,11,16.2c0.2,4.6-0.6,9.2-2.4,13.4h2c8.8,0,15.6-6.8,19.4-14.2C572.27,253.9,573.87,254.5,573.47,255.9z
		 M548.67,256.5c0-4.6-1.4-14.6-7.6-14.6c-8.8-0.2-6,21.6,5.6,26.2C548.07,264.5,548.67,260.3,548.67,256.5z"/>
</g>
</svg>
